<mxfile host="app.diagrams.net" modified="2023-09-13T04:28:19.067Z" agent="Mozilla/5.0 (Windows NT 10.0; Win64; x64) AppleWebKit/537.36 (KHTML, like Gecko) Chrome/118.0.0.0 Safari/537.36" etag="n4x1GrJI0eahiiy27Hol" version="21.7.4" type="github">
  <diagram name="Página-1" id="6OJFohY8rK-hH3m3bg7i">
    <mxGraphModel dx="880" dy="452" grid="1" gridSize="10" guides="1" tooltips="1" connect="1" arrows="1" fold="1" page="1" pageScale="1" pageWidth="827" pageHeight="1169" math="0" shadow="0">
      <root>
        <mxCell id="0" />
        <mxCell id="1" parent="0" />
        <mxCell id="3HlrBlEwusMIzVOs72gr-17" value="" style="edgeStyle=orthogonalEdgeStyle;rounded=0;orthogonalLoop=1;jettySize=auto;html=1;" parent="1" source="3HlrBlEwusMIzVOs72gr-1" target="3HlrBlEwusMIzVOs72gr-14" edge="1">
          <mxGeometry relative="1" as="geometry" />
        </mxCell>
        <mxCell id="3HlrBlEwusMIzVOs72gr-1" value="Início" style="rounded=1;whiteSpace=wrap;html=1;" parent="1" vertex="1">
          <mxGeometry x="40" y="40" width="120" height="40" as="geometry" />
        </mxCell>
        <mxCell id="3HlrBlEwusMIzVOs72gr-24" value="" style="edgeStyle=orthogonalEdgeStyle;rounded=0;orthogonalLoop=1;jettySize=auto;html=1;exitX=0.5;exitY=1;exitDx=0;exitDy=0;" parent="1" target="3HlrBlEwusMIzVOs72gr-23" edge="1">
          <mxGeometry relative="1" as="geometry">
            <mxPoint x="100" y="440" as="sourcePoint" />
          </mxGeometry>
        </mxCell>
        <mxCell id="3HlrBlEwusMIzVOs72gr-15" value="" style="edgeStyle=orthogonalEdgeStyle;rounded=0;orthogonalLoop=1;jettySize=auto;html=1;" parent="1" source="3HlrBlEwusMIzVOs72gr-14" edge="1">
          <mxGeometry relative="1" as="geometry">
            <mxPoint x="100" y="200" as="targetPoint" />
          </mxGeometry>
        </mxCell>
        <mxCell id="3HlrBlEwusMIzVOs72gr-14" value="float preco_atual, preco_novo" style="whiteSpace=wrap;html=1;" parent="1" vertex="1">
          <mxGeometry x="40" y="120" width="120" height="40" as="geometry" />
        </mxCell>
        <mxCell id="3HlrBlEwusMIzVOs72gr-27" value="" style="edgeStyle=orthogonalEdgeStyle;rounded=0;orthogonalLoop=1;jettySize=auto;html=1;" parent="1" source="3HlrBlEwusMIzVOs72gr-23" target="3HlrBlEwusMIzVOs72gr-25" edge="1">
          <mxGeometry relative="1" as="geometry" />
        </mxCell>
        <mxCell id="3HlrBlEwusMIzVOs72gr-23" value="preco_novo = preco_atual - (preco_atual * 0.09)&amp;nbsp;" style="rounded=0;whiteSpace=wrap;html=1;" parent="1" vertex="1">
          <mxGeometry x="40" y="320" width="120" height="80" as="geometry" />
        </mxCell>
        <mxCell id="3HlrBlEwusMIzVOs72gr-30" value="" style="edgeStyle=orthogonalEdgeStyle;rounded=0;orthogonalLoop=1;jettySize=auto;html=1;" parent="1" source="3HlrBlEwusMIzVOs72gr-25" target="3HlrBlEwusMIzVOs72gr-29" edge="1">
          <mxGeometry relative="1" as="geometry" />
        </mxCell>
        <mxCell id="3HlrBlEwusMIzVOs72gr-25" value="&amp;nbsp; &amp;nbsp; &amp;nbsp;&quot;Novo preço com&amp;nbsp; &amp;nbsp; desconto de 9%: &quot; preco_novo" style="shape=display;whiteSpace=wrap;html=1;" parent="1" vertex="1">
          <mxGeometry x="40" y="440" width="120" height="80" as="geometry" />
        </mxCell>
        <mxCell id="3HlrBlEwusMIzVOs72gr-29" value="Fim" style="rounded=1;whiteSpace=wrap;html=1;" parent="1" vertex="1">
          <mxGeometry x="40" y="560" width="120" height="40" as="geometry" />
        </mxCell>
        <mxCell id="3HlrBlEwusMIzVOs72gr-35" value="exercício 1" style="text;html=1;align=center;verticalAlign=middle;resizable=0;points=[];autosize=1;strokeColor=none;fillColor=none;" parent="1" vertex="1">
          <mxGeometry width="80" height="30" as="geometry" />
        </mxCell>
        <mxCell id="3HlrBlEwusMIzVOs72gr-37" value="exercício 2" style="text;html=1;align=center;verticalAlign=middle;resizable=0;points=[];autosize=1;strokeColor=none;fillColor=none;" parent="1" vertex="1">
          <mxGeometry x="240" width="80" height="30" as="geometry" />
        </mxCell>
        <mxCell id="3HlrBlEwusMIzVOs72gr-44" value="" style="edgeStyle=orthogonalEdgeStyle;rounded=0;orthogonalLoop=1;jettySize=auto;html=1;" parent="1" source="3HlrBlEwusMIzVOs72gr-38" target="3HlrBlEwusMIzVOs72gr-41" edge="1">
          <mxGeometry relative="1" as="geometry" />
        </mxCell>
        <mxCell id="3HlrBlEwusMIzVOs72gr-38" value="Início" style="rounded=1;whiteSpace=wrap;html=1;" parent="1" vertex="1">
          <mxGeometry x="280" y="40" width="120" height="40" as="geometry" />
        </mxCell>
        <mxCell id="3HlrBlEwusMIzVOs72gr-45" value="" style="edgeStyle=orthogonalEdgeStyle;rounded=0;orthogonalLoop=1;jettySize=auto;html=1;" parent="1" source="3HlrBlEwusMIzVOs72gr-41" target="3HlrBlEwusMIzVOs72gr-42" edge="1">
          <mxGeometry relative="1" as="geometry" />
        </mxCell>
        <mxCell id="3HlrBlEwusMIzVOs72gr-41" value="&lt;font&gt;int horas,&amp;nbsp;&lt;br&gt;&lt;/font&gt;velocidademedia" style="rounded=0;whiteSpace=wrap;html=1;" parent="1" vertex="1">
          <mxGeometry x="280" y="120" width="120" height="40" as="geometry" />
        </mxCell>
        <mxCell id="4Ul2uqk5TLcKOXgZtuCx-5" value="" style="edgeStyle=orthogonalEdgeStyle;rounded=0;orthogonalLoop=1;jettySize=auto;html=1;" parent="1" source="3HlrBlEwusMIzVOs72gr-42" target="4Ul2uqk5TLcKOXgZtuCx-2" edge="1">
          <mxGeometry relative="1" as="geometry" />
        </mxCell>
        <mxCell id="3HlrBlEwusMIzVOs72gr-42" value="float distancia, consumo" style="rounded=0;whiteSpace=wrap;html=1;" parent="1" vertex="1">
          <mxGeometry x="280" y="200" width="120" height="40" as="geometry" />
        </mxCell>
        <mxCell id="4Ul2uqk5TLcKOXgZtuCx-6" value="" style="edgeStyle=orthogonalEdgeStyle;rounded=0;orthogonalLoop=1;jettySize=auto;html=1;" parent="1" source="4Ul2uqk5TLcKOXgZtuCx-2" target="4Ul2uqk5TLcKOXgZtuCx-3" edge="1">
          <mxGeometry relative="1" as="geometry" />
        </mxCell>
        <mxCell id="4Ul2uqk5TLcKOXgZtuCx-2" value="&lt;font style=&quot;border-color: var(--border-color);&quot;&gt;&lt;font style=&quot;border-color: var(--border-color);&quot;&gt;&lt;br&gt;&quot;Informe o&lt;/font&gt;&lt;br style=&quot;border-color: var(--border-color);&quot;&gt;tempo&amp;nbsp;&lt;/font&gt;&lt;font style=&quot;border-color: var(--border-color);&quot;&gt;gasto&lt;/font&gt;&lt;br style=&quot;border-color: var(--border-color);&quot;&gt;&lt;font style=&quot;border-color: var(--border-color);&quot;&gt;em horas: &quot;&lt;/font&gt;" style="shape=manualInput;whiteSpace=wrap;html=1;" parent="1" vertex="1">
          <mxGeometry x="280" y="280" width="120" height="80" as="geometry" />
        </mxCell>
        <mxCell id="4Ul2uqk5TLcKOXgZtuCx-11" value="" style="edgeStyle=orthogonalEdgeStyle;rounded=0;orthogonalLoop=1;jettySize=auto;html=1;" parent="1" source="4Ul2uqk5TLcKOXgZtuCx-3" target="4Ul2uqk5TLcKOXgZtuCx-9" edge="1">
          <mxGeometry relative="1" as="geometry" />
        </mxCell>
        <mxCell id="4Ul2uqk5TLcKOXgZtuCx-3" value="&lt;br&gt;&quot;Informe a&lt;br style=&quot;border-color: var(--border-color);&quot;&gt;velocidade&lt;br style=&quot;border-color: var(--border-color);&quot;&gt;média: &quot;" style="shape=manualInput;whiteSpace=wrap;html=1;" parent="1" vertex="1">
          <mxGeometry x="280" y="400" width="120" height="80" as="geometry" />
        </mxCell>
        <mxCell id="4Ul2uqk5TLcKOXgZtuCx-17" value="" style="edgeStyle=orthogonalEdgeStyle;rounded=0;orthogonalLoop=1;jettySize=auto;html=1;" parent="1" source="4Ul2uqk5TLcKOXgZtuCx-4" target="3HlrBlEwusMIzVOs72gr-23" edge="1">
          <mxGeometry relative="1" as="geometry" />
        </mxCell>
        <mxCell id="4Ul2uqk5TLcKOXgZtuCx-4" value="&lt;br&gt;&quot;Informe&lt;br style=&quot;border-color: var(--border-color);&quot;&gt;o preço atual do&amp;nbsp; produto: &quot;" style="shape=manualInput;whiteSpace=wrap;html=1;" parent="1" vertex="1">
          <mxGeometry x="40" y="200" width="120" height="80" as="geometry" />
        </mxCell>
        <mxCell id="4Ul2uqk5TLcKOXgZtuCx-12" value="" style="edgeStyle=orthogonalEdgeStyle;rounded=0;orthogonalLoop=1;jettySize=auto;html=1;" parent="1" source="4Ul2uqk5TLcKOXgZtuCx-9" target="4Ul2uqk5TLcKOXgZtuCx-10" edge="1">
          <mxGeometry relative="1" as="geometry" />
        </mxCell>
        <mxCell id="4Ul2uqk5TLcKOXgZtuCx-9" value="distancia =&amp;nbsp;horas * velocidademedia" style="rounded=0;whiteSpace=wrap;html=1;" parent="1" vertex="1">
          <mxGeometry x="280" y="520" width="120" height="80" as="geometry" />
        </mxCell>
        <mxCell id="4Ul2uqk5TLcKOXgZtuCx-14" value="" style="edgeStyle=orthogonalEdgeStyle;rounded=0;orthogonalLoop=1;jettySize=auto;html=1;" parent="1" source="4Ul2uqk5TLcKOXgZtuCx-10" target="4Ul2uqk5TLcKOXgZtuCx-13" edge="1">
          <mxGeometry relative="1" as="geometry" />
        </mxCell>
        <mxCell id="4Ul2uqk5TLcKOXgZtuCx-10" value="consumo =&amp;nbsp;&lt;br&gt;distancia / 12" style="rounded=0;whiteSpace=wrap;html=1;" parent="1" vertex="1">
          <mxGeometry x="280" y="640" width="120" height="40" as="geometry" />
        </mxCell>
        <mxCell id="4Ul2uqk5TLcKOXgZtuCx-16" value="" style="edgeStyle=orthogonalEdgeStyle;rounded=0;orthogonalLoop=1;jettySize=auto;html=1;" parent="1" source="4Ul2uqk5TLcKOXgZtuCx-13" target="4Ul2uqk5TLcKOXgZtuCx-15" edge="1">
          <mxGeometry relative="1" as="geometry" />
        </mxCell>
        <mxCell id="4Ul2uqk5TLcKOXgZtuCx-13" value="&quot;Foram gastos &quot; consumo &quot; litros de combustível&quot;" style="shape=display;whiteSpace=wrap;html=1;" parent="1" vertex="1">
          <mxGeometry x="280" y="720" width="120" height="80" as="geometry" />
        </mxCell>
        <mxCell id="4Ul2uqk5TLcKOXgZtuCx-15" value="Fim" style="rounded=1;whiteSpace=wrap;html=1;" parent="1" vertex="1">
          <mxGeometry x="280" y="840" width="120" height="40" as="geometry" />
        </mxCell>
        <mxCell id="4Ul2uqk5TLcKOXgZtuCx-18" value="exercício 3" style="text;html=1;align=center;verticalAlign=middle;resizable=0;points=[];autosize=1;strokeColor=none;fillColor=none;" parent="1" vertex="1">
          <mxGeometry x="480" width="80" height="30" as="geometry" />
        </mxCell>
        <mxCell id="4Ul2uqk5TLcKOXgZtuCx-19" value="exercício 4" style="text;html=1;align=center;verticalAlign=middle;resizable=0;points=[];autosize=1;strokeColor=none;fillColor=none;" parent="1" vertex="1">
          <mxGeometry x="720" width="80" height="30" as="geometry" />
        </mxCell>
        <mxCell id="4Ul2uqk5TLcKOXgZtuCx-26" value="" style="edgeStyle=orthogonalEdgeStyle;rounded=0;orthogonalLoop=1;jettySize=auto;html=1;" parent="1" source="4Ul2uqk5TLcKOXgZtuCx-20" target="4Ul2uqk5TLcKOXgZtuCx-24" edge="1">
          <mxGeometry relative="1" as="geometry" />
        </mxCell>
        <mxCell id="4Ul2uqk5TLcKOXgZtuCx-20" value="Início" style="rounded=1;whiteSpace=wrap;html=1;" parent="1" vertex="1">
          <mxGeometry x="520" y="40" width="120" height="40" as="geometry" />
        </mxCell>
        <mxCell id="4Ul2uqk5TLcKOXgZtuCx-27" value="" style="edgeStyle=orthogonalEdgeStyle;rounded=0;orthogonalLoop=1;jettySize=auto;html=1;" parent="1" source="4Ul2uqk5TLcKOXgZtuCx-21" target="4Ul2uqk5TLcKOXgZtuCx-25" edge="1">
          <mxGeometry relative="1" as="geometry" />
        </mxCell>
        <mxCell id="4Ul2uqk5TLcKOXgZtuCx-21" value="Início" style="rounded=1;whiteSpace=wrap;html=1;" parent="1" vertex="1">
          <mxGeometry x="760" y="40" width="120" height="40" as="geometry" />
        </mxCell>
        <mxCell id="MowBQ1_9IW9g_iaOD-7B-3" value="" style="edgeStyle=orthogonalEdgeStyle;rounded=0;orthogonalLoop=1;jettySize=auto;html=1;" parent="1" source="4Ul2uqk5TLcKOXgZtuCx-24" target="MowBQ1_9IW9g_iaOD-7B-2" edge="1">
          <mxGeometry relative="1" as="geometry" />
        </mxCell>
        <mxCell id="4Ul2uqk5TLcKOXgZtuCx-24" value="float numero" style="rounded=0;whiteSpace=wrap;html=1;" parent="1" vertex="1">
          <mxGeometry x="520" y="120" width="120" height="40" as="geometry" />
        </mxCell>
        <mxCell id="MowBQ1_9IW9g_iaOD-7B-18" value="" style="edgeStyle=orthogonalEdgeStyle;rounded=0;orthogonalLoop=1;jettySize=auto;html=1;" parent="1" source="4Ul2uqk5TLcKOXgZtuCx-25" target="MowBQ1_9IW9g_iaOD-7B-16" edge="1">
          <mxGeometry relative="1" as="geometry" />
        </mxCell>
        <mxCell id="4Ul2uqk5TLcKOXgZtuCx-25" value="int num1, num2,&lt;br&gt;soma, restodiv" style="rounded=0;whiteSpace=wrap;html=1;" parent="1" vertex="1">
          <mxGeometry x="760" y="120" width="120" height="40" as="geometry" />
        </mxCell>
        <mxCell id="MowBQ1_9IW9g_iaOD-7B-5" value="" style="edgeStyle=orthogonalEdgeStyle;rounded=0;orthogonalLoop=1;jettySize=auto;html=1;" parent="1" source="MowBQ1_9IW9g_iaOD-7B-2" target="MowBQ1_9IW9g_iaOD-7B-4" edge="1">
          <mxGeometry relative="1" as="geometry" />
        </mxCell>
        <mxCell id="MowBQ1_9IW9g_iaOD-7B-2" value="&lt;br&gt;&quot;Informe um&lt;br&gt;número: &quot;" style="shape=manualInput;whiteSpace=wrap;html=1;" parent="1" vertex="1">
          <mxGeometry x="520" y="200" width="120" height="80" as="geometry" />
        </mxCell>
        <mxCell id="MowBQ1_9IW9g_iaOD-7B-4" value="numero &amp;gt; 20" style="rhombus;whiteSpace=wrap;html=1;" parent="1" vertex="1">
          <mxGeometry x="520" y="320" width="120" height="80" as="geometry" />
        </mxCell>
        <mxCell id="MowBQ1_9IW9g_iaOD-7B-19" value="" style="edgeStyle=orthogonalEdgeStyle;rounded=0;orthogonalLoop=1;jettySize=auto;html=1;" parent="1" source="MowBQ1_9IW9g_iaOD-7B-16" target="MowBQ1_9IW9g_iaOD-7B-17" edge="1">
          <mxGeometry relative="1" as="geometry" />
        </mxCell>
        <mxCell id="MowBQ1_9IW9g_iaOD-7B-16" value="&lt;br&gt;&quot;Informe o primeiro&lt;br&gt;número: &quot;" style="shape=manualInput;whiteSpace=wrap;html=1;" parent="1" vertex="1">
          <mxGeometry x="760" y="200" width="120" height="80" as="geometry" />
        </mxCell>
        <mxCell id="MowBQ1_9IW9g_iaOD-7B-21" value="" style="edgeStyle=orthogonalEdgeStyle;rounded=0;orthogonalLoop=1;jettySize=auto;html=1;" parent="1" source="MowBQ1_9IW9g_iaOD-7B-17" target="MowBQ1_9IW9g_iaOD-7B-20" edge="1">
          <mxGeometry relative="1" as="geometry" />
        </mxCell>
        <mxCell id="MowBQ1_9IW9g_iaOD-7B-17" value="&lt;br&gt;&quot;Informe o segundo&lt;br&gt;número: &quot;" style="shape=manualInput;whiteSpace=wrap;html=1;" parent="1" vertex="1">
          <mxGeometry x="760" y="320" width="120" height="80" as="geometry" />
        </mxCell>
        <mxCell id="MowBQ1_9IW9g_iaOD-7B-23" value="" style="edgeStyle=orthogonalEdgeStyle;rounded=0;orthogonalLoop=1;jettySize=auto;html=1;" parent="1" source="MowBQ1_9IW9g_iaOD-7B-20" target="MowBQ1_9IW9g_iaOD-7B-22" edge="1">
          <mxGeometry relative="1" as="geometry" />
        </mxCell>
        <mxCell id="MowBQ1_9IW9g_iaOD-7B-20" value="soma = num1 + num2&amp;nbsp;" style="whiteSpace=wrap;html=1;" parent="1" vertex="1">
          <mxGeometry x="760" y="440" width="120" height="40" as="geometry" />
        </mxCell>
        <mxCell id="MowBQ1_9IW9g_iaOD-7B-22" value="soma &amp;gt; 10" style="rhombus;whiteSpace=wrap;html=1;" parent="1" vertex="1">
          <mxGeometry x="760" y="520" width="120" height="40" as="geometry" />
        </mxCell>
        <mxCell id="MowBQ1_9IW9g_iaOD-7B-29" value="exercício 4" style="text;html=1;align=center;verticalAlign=middle;resizable=0;points=[];autosize=1;strokeColor=none;fillColor=none;" parent="1" vertex="1">
          <mxGeometry x="1000" width="80" height="30" as="geometry" />
        </mxCell>
        <mxCell id="MowBQ1_9IW9g_iaOD-7B-30" value="" style="edgeStyle=orthogonalEdgeStyle;rounded=0;orthogonalLoop=1;jettySize=auto;html=1;" parent="1" source="MowBQ1_9IW9g_iaOD-7B-31" target="MowBQ1_9IW9g_iaOD-7B-33" edge="1">
          <mxGeometry relative="1" as="geometry" />
        </mxCell>
        <mxCell id="MowBQ1_9IW9g_iaOD-7B-31" value="Início" style="rounded=1;whiteSpace=wrap;html=1;" parent="1" vertex="1">
          <mxGeometry x="1040" y="40" width="120" height="40" as="geometry" />
        </mxCell>
        <mxCell id="MowBQ1_9IW9g_iaOD-7B-32" value="" style="edgeStyle=orthogonalEdgeStyle;rounded=0;orthogonalLoop=1;jettySize=auto;html=1;" parent="1" source="MowBQ1_9IW9g_iaOD-7B-33" target="MowBQ1_9IW9g_iaOD-7B-35" edge="1">
          <mxGeometry relative="1" as="geometry" />
        </mxCell>
        <mxCell id="MowBQ1_9IW9g_iaOD-7B-33" value="float salario, prestacao, porcent" style="rounded=0;whiteSpace=wrap;html=1;" parent="1" vertex="1">
          <mxGeometry x="1040" y="120" width="120" height="40" as="geometry" />
        </mxCell>
        <mxCell id="MowBQ1_9IW9g_iaOD-7B-34" value="" style="edgeStyle=orthogonalEdgeStyle;rounded=0;orthogonalLoop=1;jettySize=auto;html=1;" parent="1" source="MowBQ1_9IW9g_iaOD-7B-35" target="MowBQ1_9IW9g_iaOD-7B-37" edge="1">
          <mxGeometry relative="1" as="geometry" />
        </mxCell>
        <mxCell id="MowBQ1_9IW9g_iaOD-7B-35" value="&lt;br&gt;&quot;Informe o valor&lt;br&gt;do salário: &quot;" style="shape=manualInput;whiteSpace=wrap;html=1;" parent="1" vertex="1">
          <mxGeometry x="1040" y="200" width="120" height="80" as="geometry" />
        </mxCell>
        <mxCell id="MowBQ1_9IW9g_iaOD-7B-36" value="" style="edgeStyle=orthogonalEdgeStyle;rounded=0;orthogonalLoop=1;jettySize=auto;html=1;" parent="1" source="MowBQ1_9IW9g_iaOD-7B-37" target="MowBQ1_9IW9g_iaOD-7B-39" edge="1">
          <mxGeometry relative="1" as="geometry" />
        </mxCell>
        <mxCell id="MowBQ1_9IW9g_iaOD-7B-37" value="&lt;br&gt;&quot;Informe o valor&lt;br&gt;da prestação: &quot;" style="shape=manualInput;whiteSpace=wrap;html=1;" parent="1" vertex="1">
          <mxGeometry x="1040" y="320" width="120" height="80" as="geometry" />
        </mxCell>
        <mxCell id="MowBQ1_9IW9g_iaOD-7B-38" value="" style="edgeStyle=orthogonalEdgeStyle;rounded=0;orthogonalLoop=1;jettySize=auto;html=1;" parent="1" source="MowBQ1_9IW9g_iaOD-7B-39" target="MowBQ1_9IW9g_iaOD-7B-40" edge="1">
          <mxGeometry relative="1" as="geometry" />
        </mxCell>
        <mxCell id="MowBQ1_9IW9g_iaOD-7B-39" value="porcent = salario * 0,20&amp;nbsp;" style="whiteSpace=wrap;html=1;" parent="1" vertex="1">
          <mxGeometry x="1040" y="440" width="120" height="40" as="geometry" />
        </mxCell>
        <mxCell id="Qb0N0NtETYlz7x_AtAxI-2" value="" style="edgeStyle=orthogonalEdgeStyle;rounded=0;orthogonalLoop=1;jettySize=auto;html=1;" edge="1" parent="1" source="MowBQ1_9IW9g_iaOD-7B-40" target="Qb0N0NtETYlz7x_AtAxI-1">
          <mxGeometry relative="1" as="geometry">
            <Array as="points">
              <mxPoint x="1220" y="560" />
            </Array>
          </mxGeometry>
        </mxCell>
        <mxCell id="Qb0N0NtETYlz7x_AtAxI-4" value="" style="edgeStyle=orthogonalEdgeStyle;rounded=0;orthogonalLoop=1;jettySize=auto;html=1;" edge="1" parent="1" source="MowBQ1_9IW9g_iaOD-7B-40" target="Qb0N0NtETYlz7x_AtAxI-3">
          <mxGeometry relative="1" as="geometry">
            <Array as="points">
              <mxPoint x="980" y="560" />
            </Array>
          </mxGeometry>
        </mxCell>
        <mxCell id="MowBQ1_9IW9g_iaOD-7B-40" value="prestacao &lt;br&gt;&amp;gt; &lt;br&gt;porcent" style="rhombus;whiteSpace=wrap;html=1;" parent="1" vertex="1">
          <mxGeometry x="1040" y="520" width="120" height="80" as="geometry" />
        </mxCell>
        <mxCell id="Qb0N0NtETYlz7x_AtAxI-7" value="" style="edgeStyle=orthogonalEdgeStyle;rounded=0;orthogonalLoop=1;jettySize=auto;html=1;" edge="1" parent="1" source="Qb0N0NtETYlz7x_AtAxI-1" target="Qb0N0NtETYlz7x_AtAxI-5">
          <mxGeometry relative="1" as="geometry" />
        </mxCell>
        <mxCell id="Qb0N0NtETYlz7x_AtAxI-1" value="&quot;Empréstimo &lt;br&gt;não pode ser&lt;br&gt;concedido&quot;&amp;nbsp;" style="shape=display;whiteSpace=wrap;html=1;" vertex="1" parent="1">
          <mxGeometry x="1160" y="600" width="119" height="80" as="geometry" />
        </mxCell>
        <mxCell id="Qb0N0NtETYlz7x_AtAxI-6" value="" style="edgeStyle=orthogonalEdgeStyle;rounded=0;orthogonalLoop=1;jettySize=auto;html=1;" edge="1" parent="1" source="Qb0N0NtETYlz7x_AtAxI-3" target="Qb0N0NtETYlz7x_AtAxI-5">
          <mxGeometry relative="1" as="geometry">
            <Array as="points">
              <mxPoint x="980" y="700" />
              <mxPoint x="1100" y="700" />
            </Array>
          </mxGeometry>
        </mxCell>
        <mxCell id="Qb0N0NtETYlz7x_AtAxI-3" value="&quot;Empréstimo&lt;br&gt;pode ser&lt;br&gt;concedido&quot;" style="shape=display;whiteSpace=wrap;html=1;" vertex="1" parent="1">
          <mxGeometry x="920" y="600" width="119" height="80" as="geometry" />
        </mxCell>
        <mxCell id="Qb0N0NtETYlz7x_AtAxI-5" value="fim" style="whiteSpace=wrap;html=1;" vertex="1" parent="1">
          <mxGeometry x="1040" y="720" width="120" height="40" as="geometry" />
        </mxCell>
        <mxCell id="Qb0N0NtETYlz7x_AtAxI-8" value="n" style="text;html=1;strokeColor=none;fillColor=none;align=center;verticalAlign=middle;whiteSpace=wrap;rounded=0;" vertex="1" parent="1">
          <mxGeometry x="980" y="530" width="60" height="30" as="geometry" />
        </mxCell>
        <mxCell id="Qb0N0NtETYlz7x_AtAxI-9" value="s" style="text;html=1;strokeColor=none;fillColor=none;align=center;verticalAlign=middle;whiteSpace=wrap;rounded=0;" vertex="1" parent="1">
          <mxGeometry x="1160" y="530" width="60" height="30" as="geometry" />
        </mxCell>
        <mxCell id="Qb0N0NtETYlz7x_AtAxI-10" value="exercício 6" style="text;html=1;align=center;verticalAlign=middle;resizable=0;points=[];autosize=1;strokeColor=none;fillColor=none;" vertex="1" parent="1">
          <mxGeometry x="1560" width="80" height="30" as="geometry" />
        </mxCell>
        <mxCell id="Qb0N0NtETYlz7x_AtAxI-11" value="" style="edgeStyle=orthogonalEdgeStyle;rounded=0;orthogonalLoop=1;jettySize=auto;html=1;" edge="1" source="Qb0N0NtETYlz7x_AtAxI-12" target="Qb0N0NtETYlz7x_AtAxI-14" parent="1">
          <mxGeometry relative="1" as="geometry" />
        </mxCell>
        <mxCell id="Qb0N0NtETYlz7x_AtAxI-12" value="Início" style="rounded=1;whiteSpace=wrap;html=1;" vertex="1" parent="1">
          <mxGeometry x="1600" y="40" width="120" height="40" as="geometry" />
        </mxCell>
        <mxCell id="Qb0N0NtETYlz7x_AtAxI-13" value="" style="edgeStyle=orthogonalEdgeStyle;rounded=0;orthogonalLoop=1;jettySize=auto;html=1;" edge="1" source="Qb0N0NtETYlz7x_AtAxI-14" target="Qb0N0NtETYlz7x_AtAxI-16" parent="1">
          <mxGeometry relative="1" as="geometry" />
        </mxCell>
        <mxCell id="Qb0N0NtETYlz7x_AtAxI-14" value="int numero" style="rounded=0;whiteSpace=wrap;html=1;" vertex="1" parent="1">
          <mxGeometry x="1600" y="120" width="120" height="40" as="geometry" />
        </mxCell>
        <mxCell id="Qb0N0NtETYlz7x_AtAxI-32" value="" style="edgeStyle=orthogonalEdgeStyle;rounded=0;orthogonalLoop=1;jettySize=auto;html=1;" edge="1" parent="1" source="Qb0N0NtETYlz7x_AtAxI-16" target="Qb0N0NtETYlz7x_AtAxI-31">
          <mxGeometry relative="1" as="geometry" />
        </mxCell>
        <mxCell id="Qb0N0NtETYlz7x_AtAxI-16" value="&lt;br&gt;&quot;Informe o número: &quot;" style="shape=manualInput;whiteSpace=wrap;html=1;" vertex="1" parent="1">
          <mxGeometry x="1600" y="200" width="120" height="80" as="geometry" />
        </mxCell>
        <mxCell id="Qb0N0NtETYlz7x_AtAxI-34" value="" style="edgeStyle=orthogonalEdgeStyle;rounded=0;orthogonalLoop=1;jettySize=auto;html=1;" edge="1" parent="1" source="Qb0N0NtETYlz7x_AtAxI-31" target="Qb0N0NtETYlz7x_AtAxI-33">
          <mxGeometry relative="1" as="geometry">
            <Array as="points">
              <mxPoint x="1820" y="340" />
            </Array>
          </mxGeometry>
        </mxCell>
        <mxCell id="Qb0N0NtETYlz7x_AtAxI-37" value="" style="edgeStyle=orthogonalEdgeStyle;rounded=0;orthogonalLoop=1;jettySize=auto;html=1;" edge="1" parent="1" source="Qb0N0NtETYlz7x_AtAxI-31" target="Qb0N0NtETYlz7x_AtAxI-36">
          <mxGeometry relative="1" as="geometry">
            <Array as="points">
              <mxPoint x="1500" y="340" />
            </Array>
          </mxGeometry>
        </mxCell>
        <mxCell id="Qb0N0NtETYlz7x_AtAxI-31" value="numero &amp;gt; 20" style="rhombus;whiteSpace=wrap;html=1;" vertex="1" parent="1">
          <mxGeometry x="1600" y="320" width="120" height="40" as="geometry" />
        </mxCell>
        <mxCell id="Qb0N0NtETYlz7x_AtAxI-33" value="&quot;o número é&lt;br&gt;maior que 20&quot;" style="shape=display;whiteSpace=wrap;html=1;" vertex="1" parent="1">
          <mxGeometry x="1760" y="400" width="120" height="40" as="geometry" />
        </mxCell>
        <mxCell id="Qb0N0NtETYlz7x_AtAxI-39" value="" style="edgeStyle=orthogonalEdgeStyle;rounded=0;orthogonalLoop=1;jettySize=auto;html=1;entryX=0.5;entryY=0;entryDx=0;entryDy=0;entryPerimeter=0;" edge="1" parent="1" target="Qb0N0NtETYlz7x_AtAxI-38">
          <mxGeometry relative="1" as="geometry">
            <mxPoint x="1500" y="420" as="sourcePoint" />
            <mxPoint x="1620" y="470" as="targetPoint" />
            <Array as="points">
              <mxPoint x="1620" y="420" />
            </Array>
          </mxGeometry>
        </mxCell>
        <mxCell id="Qb0N0NtETYlz7x_AtAxI-41" value="" style="edgeStyle=orthogonalEdgeStyle;rounded=0;orthogonalLoop=1;jettySize=auto;html=1;" edge="1" parent="1" source="Qb0N0NtETYlz7x_AtAxI-36" target="Qb0N0NtETYlz7x_AtAxI-40">
          <mxGeometry relative="1" as="geometry">
            <Array as="points">
              <mxPoint x="1380" y="420" />
            </Array>
          </mxGeometry>
        </mxCell>
        <mxCell id="Qb0N0NtETYlz7x_AtAxI-36" value="numero &amp;lt; 20" style="rhombus;whiteSpace=wrap;html=1;" vertex="1" parent="1">
          <mxGeometry x="1440" y="400" width="120" height="40" as="geometry" />
        </mxCell>
        <mxCell id="Qb0N0NtETYlz7x_AtAxI-38" value="&quot;o número é&lt;br&gt;menor que 20&quot;" style="shape=display;whiteSpace=wrap;html=1;" vertex="1" parent="1">
          <mxGeometry x="1560" y="480" width="120" height="40" as="geometry" />
        </mxCell>
        <mxCell id="Qb0N0NtETYlz7x_AtAxI-44" value="" style="edgeStyle=orthogonalEdgeStyle;rounded=0;orthogonalLoop=1;jettySize=auto;html=1;entryX=0.5;entryY=0;entryDx=0;entryDy=0;" edge="1" parent="1" target="Qb0N0NtETYlz7x_AtAxI-42">
          <mxGeometry relative="1" as="geometry">
            <mxPoint x="1382" y="520" as="sourcePoint" />
            <mxPoint x="1638" y="580" as="targetPoint" />
            <Array as="points">
              <mxPoint x="1382" y="560" />
              <mxPoint x="1618" y="560" />
            </Array>
          </mxGeometry>
        </mxCell>
        <mxCell id="Qb0N0NtETYlz7x_AtAxI-40" value="&quot;o número é&lt;br&gt;igual a 20&quot;" style="shape=display;whiteSpace=wrap;html=1;" vertex="1" parent="1">
          <mxGeometry x="1320" y="480" width="120" height="40" as="geometry" />
        </mxCell>
        <mxCell id="Qb0N0NtETYlz7x_AtAxI-42" value="fim" style="whiteSpace=wrap;html=1;" vertex="1" parent="1">
          <mxGeometry x="1558" y="600" width="120" height="40" as="geometry" />
        </mxCell>
        <mxCell id="Qb0N0NtETYlz7x_AtAxI-49" value="" style="endArrow=none;html=1;rounded=0;entryX=0.35;entryY=1.013;entryDx=0;entryDy=0;entryPerimeter=0;" edge="1" parent="1">
          <mxGeometry width="50" height="50" relative="1" as="geometry">
            <mxPoint x="1820" y="560" as="sourcePoint" />
            <mxPoint x="1819.5" y="439.99999999999994" as="targetPoint" />
          </mxGeometry>
        </mxCell>
        <mxCell id="Qb0N0NtETYlz7x_AtAxI-50" value="" style="endArrow=none;html=1;rounded=0;" edge="1" parent="1">
          <mxGeometry width="50" height="50" relative="1" as="geometry">
            <mxPoint x="1608" y="560" as="sourcePoint" />
            <mxPoint x="1818" y="560" as="targetPoint" />
          </mxGeometry>
        </mxCell>
        <mxCell id="Qb0N0NtETYlz7x_AtAxI-52" value="" style="endArrow=none;html=1;rounded=0;" edge="1" parent="1">
          <mxGeometry width="50" height="50" relative="1" as="geometry">
            <mxPoint x="1618" y="560" as="sourcePoint" />
            <mxPoint x="1618" y="520" as="targetPoint" />
          </mxGeometry>
        </mxCell>
        <mxCell id="Qb0N0NtETYlz7x_AtAxI-53" value="" style="edgeStyle=orthogonalEdgeStyle;rounded=0;orthogonalLoop=1;jettySize=auto;html=1;" edge="1" source="Qb0N0NtETYlz7x_AtAxI-54" target="Qb0N0NtETYlz7x_AtAxI-56" parent="1">
          <mxGeometry relative="1" as="geometry" />
        </mxCell>
        <mxCell id="Qb0N0NtETYlz7x_AtAxI-54" value="Início" style="rounded=1;whiteSpace=wrap;html=1;" vertex="1" parent="1">
          <mxGeometry x="2080" y="40" width="120" height="40" as="geometry" />
        </mxCell>
        <mxCell id="Qb0N0NtETYlz7x_AtAxI-55" value="" style="edgeStyle=orthogonalEdgeStyle;rounded=0;orthogonalLoop=1;jettySize=auto;html=1;" edge="1" source="Qb0N0NtETYlz7x_AtAxI-56" target="Qb0N0NtETYlz7x_AtAxI-58" parent="1">
          <mxGeometry relative="1" as="geometry" />
        </mxCell>
        <mxCell id="Qb0N0NtETYlz7x_AtAxI-56" value="int liminferior, limsuperior, intervalo" style="rounded=0;whiteSpace=wrap;html=1;" vertex="1" parent="1">
          <mxGeometry x="2080" y="120" width="120" height="40" as="geometry" />
        </mxCell>
        <mxCell id="Qb0N0NtETYlz7x_AtAxI-57" value="" style="edgeStyle=orthogonalEdgeStyle;rounded=0;orthogonalLoop=1;jettySize=auto;html=1;" edge="1" source="Qb0N0NtETYlz7x_AtAxI-58" target="Qb0N0NtETYlz7x_AtAxI-60" parent="1">
          <mxGeometry relative="1" as="geometry" />
        </mxCell>
        <mxCell id="Qb0N0NtETYlz7x_AtAxI-58" value="float soma = 0" style="rounded=0;whiteSpace=wrap;html=1;" vertex="1" parent="1">
          <mxGeometry x="2080" y="200" width="120" height="40" as="geometry" />
        </mxCell>
        <mxCell id="Qb0N0NtETYlz7x_AtAxI-59" value="" style="edgeStyle=orthogonalEdgeStyle;rounded=0;orthogonalLoop=1;jettySize=auto;html=1;" edge="1" source="Qb0N0NtETYlz7x_AtAxI-60" target="Qb0N0NtETYlz7x_AtAxI-62" parent="1">
          <mxGeometry relative="1" as="geometry" />
        </mxCell>
        <mxCell id="Qb0N0NtETYlz7x_AtAxI-60" value="&lt;font style=&quot;border-color: var(--border-color);&quot;&gt;&lt;font style=&quot;border-color: var(--border-color);&quot;&gt;&lt;br&gt;&quot;Informe o&lt;/font&gt;&lt;br style=&quot;border-color: var(--border-color);&quot;&gt;&lt;/font&gt;&lt;font style=&quot;border-color: var(--border-color);&quot;&gt;limite inferior: &quot;&lt;/font&gt;" style="shape=manualInput;whiteSpace=wrap;html=1;" vertex="1" parent="1">
          <mxGeometry x="2080" y="280" width="120" height="80" as="geometry" />
        </mxCell>
        <mxCell id="Qb0N0NtETYlz7x_AtAxI-76" value="" style="edgeStyle=orthogonalEdgeStyle;rounded=0;orthogonalLoop=1;jettySize=auto;html=1;" edge="1" parent="1" source="Qb0N0NtETYlz7x_AtAxI-62" target="Qb0N0NtETYlz7x_AtAxI-75">
          <mxGeometry relative="1" as="geometry" />
        </mxCell>
        <mxCell id="Qb0N0NtETYlz7x_AtAxI-62" value="&lt;br&gt;&quot;Informe o limite superior: &quot;" style="shape=manualInput;whiteSpace=wrap;html=1;" vertex="1" parent="1">
          <mxGeometry x="2080" y="400" width="120" height="80" as="geometry" />
        </mxCell>
        <mxCell id="Qb0N0NtETYlz7x_AtAxI-70" value="exercício 7" style="text;html=1;align=center;verticalAlign=middle;resizable=0;points=[];autosize=1;strokeColor=none;fillColor=none;" vertex="1" parent="1">
          <mxGeometry x="2040" width="80" height="30" as="geometry" />
        </mxCell>
        <mxCell id="Qb0N0NtETYlz7x_AtAxI-75" value="intervalo = &lt;br&gt;liminferior + 1" style="whiteSpace=wrap;html=1;" vertex="1" parent="1">
          <mxGeometry x="2080" y="520" width="120" height="40" as="geometry" />
        </mxCell>
        <mxCell id="Qb0N0NtETYlz7x_AtAxI-77" value="" style="edgeStyle=orthogonalEdgeStyle;rounded=0;orthogonalLoop=1;jettySize=auto;html=1;" edge="1" source="Qb0N0NtETYlz7x_AtAxI-78" target="Qb0N0NtETYlz7x_AtAxI-80" parent="1">
          <mxGeometry relative="1" as="geometry" />
        </mxCell>
        <mxCell id="Qb0N0NtETYlz7x_AtAxI-78" value="Início" style="rounded=1;whiteSpace=wrap;html=1;" vertex="1" parent="1">
          <mxGeometry x="2400" y="40" width="120" height="40" as="geometry" />
        </mxCell>
        <mxCell id="Qb0N0NtETYlz7x_AtAxI-79" value="" style="edgeStyle=orthogonalEdgeStyle;rounded=0;orthogonalLoop=1;jettySize=auto;html=1;" edge="1" source="Qb0N0NtETYlz7x_AtAxI-80" target="Qb0N0NtETYlz7x_AtAxI-82" parent="1">
          <mxGeometry relative="1" as="geometry" />
        </mxCell>
        <mxCell id="Qb0N0NtETYlz7x_AtAxI-80" value="int liminferior, limsuperior, intervalo" style="rounded=0;whiteSpace=wrap;html=1;" vertex="1" parent="1">
          <mxGeometry x="2400" y="120" width="120" height="40" as="geometry" />
        </mxCell>
        <mxCell id="Qb0N0NtETYlz7x_AtAxI-81" value="" style="edgeStyle=orthogonalEdgeStyle;rounded=0;orthogonalLoop=1;jettySize=auto;html=1;" edge="1" source="Qb0N0NtETYlz7x_AtAxI-82" target="Qb0N0NtETYlz7x_AtAxI-84" parent="1">
          <mxGeometry relative="1" as="geometry" />
        </mxCell>
        <mxCell id="Qb0N0NtETYlz7x_AtAxI-82" value="float soma = 0" style="rounded=0;whiteSpace=wrap;html=1;" vertex="1" parent="1">
          <mxGeometry x="2400" y="200" width="120" height="40" as="geometry" />
        </mxCell>
        <mxCell id="Qb0N0NtETYlz7x_AtAxI-83" value="" style="edgeStyle=orthogonalEdgeStyle;rounded=0;orthogonalLoop=1;jettySize=auto;html=1;" edge="1" source="Qb0N0NtETYlz7x_AtAxI-84" target="Qb0N0NtETYlz7x_AtAxI-86" parent="1">
          <mxGeometry relative="1" as="geometry" />
        </mxCell>
        <mxCell id="Qb0N0NtETYlz7x_AtAxI-84" value="&lt;font style=&quot;border-color: var(--border-color);&quot;&gt;&lt;font style=&quot;border-color: var(--border-color);&quot;&gt;&lt;br&gt;&quot;Informe o&lt;/font&gt;&lt;br style=&quot;border-color: var(--border-color);&quot;&gt;&lt;/font&gt;&lt;font style=&quot;border-color: var(--border-color);&quot;&gt;limite inferior: &quot;&lt;/font&gt;" style="shape=manualInput;whiteSpace=wrap;html=1;" vertex="1" parent="1">
          <mxGeometry x="2400" y="280" width="120" height="80" as="geometry" />
        </mxCell>
        <mxCell id="Qb0N0NtETYlz7x_AtAxI-85" value="" style="edgeStyle=orthogonalEdgeStyle;rounded=0;orthogonalLoop=1;jettySize=auto;html=1;" edge="1" source="Qb0N0NtETYlz7x_AtAxI-86" target="Qb0N0NtETYlz7x_AtAxI-88" parent="1">
          <mxGeometry relative="1" as="geometry" />
        </mxCell>
        <mxCell id="Qb0N0NtETYlz7x_AtAxI-86" value="&lt;br&gt;&quot;Informe o limite superior: &quot;" style="shape=manualInput;whiteSpace=wrap;html=1;" vertex="1" parent="1">
          <mxGeometry x="2400" y="400" width="120" height="80" as="geometry" />
        </mxCell>
        <mxCell id="Qb0N0NtETYlz7x_AtAxI-87" value="exercício 8" style="text;html=1;align=center;verticalAlign=middle;resizable=0;points=[];autosize=1;strokeColor=none;fillColor=none;" vertex="1" parent="1">
          <mxGeometry x="2360" width="80" height="30" as="geometry" />
        </mxCell>
        <mxCell id="Qb0N0NtETYlz7x_AtAxI-88" value="intervalo = &lt;br&gt;liminferior + 1" style="whiteSpace=wrap;html=1;" vertex="1" parent="1">
          <mxGeometry x="2400" y="520" width="120" height="40" as="geometry" />
        </mxCell>
      </root>
    </mxGraphModel>
  </diagram>
</mxfile>
